<?xml version="1.0" encoding="UTF-8"?>
<svg id="Layer_1" data-name="Layer 1" xmlns="http://www.w3.org/2000/svg" version="1.1" viewBox="0 0 360 87">
  <defs>
    <style>
      .cls-1 {
        fill: #eb1000;
        stroke-width: 0px;
      }
    </style>
  </defs>
  <path class="cls-1" d="M0,85.8L34.9,2.5h24.5l34.7,83.3h-26l-21.9-55.3-14.4,36.3h17.2l6.8,19H0ZM126.1,87c-19.5,0-36-11.1-36-33.1s16-34.2,32.7-34.2,5.2.2,8,.9V0h21.6v82c-5,2.2-15.5,5-26.2,5ZM125.6,69.1c1.9,0,3.6-.3,5.1-.7v-30.2c-1.5-.6-3.2-1-5.2-1-7.2,0-13.8,5.3-13.8,16.4s6.7,15.5,13.9,15.5ZM190.9,86.9c-18.1,0-33.3-12.2-33.3-33.6s15.2-33.6,33.3-33.6,33.4,12.2,33.4,33.6-15.3,33.6-33.4,33.6ZM190.9,68.9c6.3,0,11.9-5,11.9-15.5s-5.6-15.5-11.9-15.5-11.8,5-11.8,15.5,5.5,15.5,11.8,15.5ZM255.4,87c-8.5,0-19.1-1.7-25.9-4.8V0h21.6v20.5c2.7-.5,5.5-.9,8.1-.9,17,0,32.7,11.2,32.7,32.8s-16.8,34.6-36.5,34.6ZM251.1,38.3v30.1c1.4.5,3,.7,4.8.7,7.3,0,14.3-5.2,14.3-16.4s-6.7-15.4-13.9-15.4-3.6.4-5.2,1ZM296.9,53.2c0-20.8,14.5-33.4,31.9-33.4s31.2,10.4,31.2,31.4-.1,5.6-.5,8.3h-40.6c2.4,7.3,8.8,10.8,16.9,10.8s12.7-1.6,19.5-4.6v16.5c-6.3,3.2-13.9,4.6-21.7,4.6-20.6,0-36.7-12.4-36.7-33.7ZM318.6,46h21.1c-1.1-7.1-5.8-9.9-10.7-9.9s-8.8,3-10.4,9.9Z"/>
</svg>