<svg width="144" height="144" viewBox="0 0 144 144" fill="none" xmlns="http://www.w3.org/2000/svg">
<g clip-path="url(#clip0)">
<g filter="url(#filter0_d)">
<path d="M76.0038 3.2164L115.996 26.3061C123.424 30.5946 128 38.5201 128 47.0972V93.2765C128 101.854 123.424 109.779 115.996 114.068L76.0038 137.157C68.5758 141.446 59.4242 141.446 51.9962 137.157L12.0038 114.068C4.57581 109.779 0 101.854 0 93.2765V47.0972C0 38.5201 4.57581 30.5946 12.0038 26.3061L51.9962 3.2164C59.4242 -1.07213 68.5758 -1.07213 76.0038 3.2164Z" transform="translate(8 1.81299)" fill="white"/>
</g>
<path d="M64 2.14425C64 2.14424 64 2.14425 64 2.14425C59.0481 -0.714749 52.947 -0.714749 47.9951 2.14425C47.9951 2.14424 47.9951 2.14425 47.9951 2.14425L8.00264 25.234C8.00267 25.234 8.00261 25.234 8.00264 25.234C6.09528 26.3353 6.43466 28.9621 8.34206 30.0633L26.2721 40.4152C27.422 41.0791 28.8476 40.909 29.9975 40.2451C29.9975 40.2451 29.9976 40.2451 29.9975 40.2451L49.9974 28.6982C49.9974 28.6982 49.9975 28.6981 49.9974 28.6982C53.7103 26.5547 58.2846 26.5546 61.9974 28.698C61.9974 28.698 61.9975 28.6981 61.9974 28.698L81.9976 40.2451C81.9976 40.2451 81.9976 40.2451 81.9976 40.2451C83.1476 40.9091 84.5731 41.0793 85.7231 40.4154L103.653 30.0634C105.561 28.9621 105.9 26.3352 103.993 25.234C103.993 25.2341 103.992 25.234 103.993 25.234L64 2.14425Z" transform="translate(16.0024 9.81543)" fill="#004466"/>
<path d="M111.995 39.0947C111.995 36.904 109.564 35.8883 107.667 36.9837L89.6983 47.3579C88.5591 48.0156 87.9976 49.322 87.9976 50.6374V73.7314C87.9976 78.0186 85.7105 81.9801 81.9977 84.1237C81.9977 84.1236 81.9976 84.1237 81.9977 84.1237L61.9974 95.6709C61.9975 95.6708 61.9973 95.6709 61.9974 95.6709C60.8529 96.3314 59.9978 97.4758 59.9978 98.7972L59.9976 119.524C59.9976 121.72 62.0977 123.323 64 122.224C63.9999 122.225 64 122.224 64 122.224L103.992 99.1348C103.992 99.1349 103.992 99.1348 103.992 99.1348C108.944 96.2758 111.995 90.992 111.995 85.274V39.0947Z" transform="translate(16.0024 9.81543)" fill="#004466"/>
<path d="M47.995 122.224C49.8974 123.323 51.9976 121.72 51.9976 119.524L51.9978 98.798C51.9978 97.4762 51.1423 96.3317 49.9976 95.6708C49.9976 95.6708 49.9976 95.6707 49.9976 95.6708L29.9977 84.1238C29.9977 84.1239 29.9976 84.1238 29.9977 84.1238C26.2849 81.9802 23.9976 78.0186 23.9976 73.7314V50.6374C23.9976 49.3219 23.4361 48.0154 22.2968 47.3576L4.32837 36.9836C2.43114 35.8883 0 36.904 0 39.0947V85.274C0 90.992 3.05048 96.2756 8.00255 99.1347C8.00247 99.1346 8.00264 99.1347 8.00255 99.1347L47.995 122.224C47.9951 122.224 47.995 122.224 47.995 122.224Z" transform="translate(16.0024 9.81543)" fill="#004466"/>
<path d="M22 0.535858C23.2375 -0.178619 24.7625 -0.178619 26 0.535858L46 12.0829C47.2375 12.7975 48 14.1179 48 15.547V38.641C48 40.07 47.2375 41.3906 46 42.1051L26 53.6521C24.7625 54.3667 23.2375 54.3667 22 53.6521L2 42.1051C0.762451 41.3906 0 40.07 0 38.641V15.547C0 14.1179 0.762451 12.7975 2 12.0829L22 0.535858Z" transform="translate(48 44.9062)" fill="#28AED4"/>
</g>
<defs>
<filter id="filter0_d" x="5" y="-0.187012" width="134" height="146.374" filterUnits="userSpaceOnUse" color-interpolation-filters="sRGB">
<feFlood flood-opacity="0" result="BackgroundImageFix"/>
<feColorMatrix in="SourceAlpha" type="matrix" values="0 0 0 0 0 0 0 0 0 0 0 0 0 0 0 0 0 0 255 0"/>
<feOffset dy="1"/>
<feGaussianBlur stdDeviation="1.5"/>
<feColorMatrix type="matrix" values="0 0 0 0 0 0 0 0 0 0 0 0 0 0 0 0 0 0 0.1 0"/>
<feBlend mode="normal" in2="BackgroundImageFix" result="effect1_dropShadow"/>
<feBlend mode="normal" in="SourceGraphic" in2="effect1_dropShadow" result="shape"/>
</filter>
<clipPath id="clip0">
<rect width="144" height="144" fill="white"/>
</clipPath>
</defs>
</svg>
